<?xml version="1.0" standalone="no"?>
<!DOCTYPE svg PUBLIC "-//W3C//DTD SVG 20010904//EN"
 "http://www.w3.org/TR/2001/REC-SVG-20010904/DTD/svg10.dtd">
<svg version="1.0" xmlns="http://www.w3.org/2000/svg"
 width="300.000000pt" height="300.000000pt" viewBox="0 0 300.000000 300.000000"
 preserveAspectRatio="xMidYMid meet">
<metadata>
Created by potrace 1.10, written by Peter Selinger 2001-2011
</metadata>
<g transform="translate(0.000000,300.000000) scale(0.100000,-0.100000)"
fill="#000000" stroke="none">
<path d="M1915 2253 c-11 -3 -60 -18 -110 -34 -49 -15 -144 -45 -210 -65 -159
-49 -410 -177 -434 -222 -5 -9 -11 -88 -13 -174 -1 -86 -6 -160 -11 -164 -4
-4 -30 -9 -58 -10 -73 -3 -84 -17 -86 -113 -2 -104 8 -114 115 -116 84 -2 122
12 122 46 0 35 25 31 134 -21 59 -27 119 -50 134 -50 27 0 291 128 325 158 9
8 17 27 17 42 0 16 9 56 19 91 64 214 151 554 151 590 0 44 -30 57 -95 42z
m71 -30 c-5 -17 -73 -274 -137 -521 -16 -62 -29 -132 -29 -155 l0 -42 -163
-84 -162 -83 -140 74 -140 75 -5 -51 -5 -51 -93 -3 -93 -3 3 88 3 88 73 3 72
3 0 184 0 185 163 79 c128 63 212 95 402 154 132 42 244 76 248 76 5 1 6 -7 3
-16z"/>
<path d="M1550 2053 c0 -5 56 -37 125 -73 l125 -65 1 -160 c0 -99 4 -152 9
-140 5 11 9 86 9 167 l1 148 -87 41 c-49 23 -109 52 -135 65 -27 14 -48 21
-48 17z"/>
<path d="M1198 1748 c1 -84 4 -171 7 -193 l6 -40 140 -71 139 -72 -2 192 -3
191 -140 72 c-77 40 -142 73 -145 73 -3 0 -4 -69 -2 -152z m169 46 c48 -26 92
-50 97 -55 14 -12 19 -126 6 -134 -6 -3 -8 -10 -5 -15 7 -12 8 -160 1 -167 -3
-3 -20 5 -38 18 -18 13 -33 22 -34 19 0 -3 -35 13 -76 34 -70 36 -77 42 -87
80 -8 29 -9 64 -2 116 5 41 9 77 9 80 -1 3 2 13 5 23 4 9 9 24 12 32 7 22 14
20 112 -31z"/>
<path d="M1700 1850 c-30 -16 -51 -29 -47 -30 4 0 21 7 36 15 16 8 30 12 32
10 3 -2 15 5 29 15 36 28 13 23 -50 -10z"/>
<path d="M1533 1629 c-29 -10 -31 -39 -4 -32 11 3 22 12 26 20 7 21 4 22 -22
12z"/>
<path d="M1040 1470 l0 -70 75 0 75 0 0 70 0 70 -75 0 -75 0 0 -70z m88 28
c23 -13 41 -27 39 -33 -4 -10 -76 -55 -89 -55 -5 0 -8 25 -8 55 0 30 3 55 8
55 4 0 26 -10 50 -22z"/>
<path d="M1080 1465 l0 -36 32 17 31 16 -24 19 c-34 26 -39 24 -39 -16z"/>
<path d="M1001 1241 c-24 -24 -20 -39 39 -165 64 -138 64 -133 32 -148 -18 -9
-28 -22 -30 -41 -5 -38 14 -57 54 -57 36 0 54 21 54 63 0 19 7 26 28 30 24 5
34 18 67 89 l38 83 11 -75 c7 -41 16 -82 21 -90 5 -8 8 -25 7 -37 -6 -40 15
-63 57 -63 42 0 56 11 66 53 10 36 22 43 18 9 -5 -38 18 -62 60 -64 47 -2 69
17 65 55 -3 31 -16 42 -59 51 -25 5 -26 8 -21 53 2 27 7 50 9 53 11 12 39 -22
44 -55 4 -21 15 -45 26 -54 11 -9 20 -29 21 -46 3 -45 22 -56 22 -12 0 37 21
52 34 25 5 -10 7 -10 12 0 13 27 34 12 34 -25 0 -35 1 -36 15 -17 8 10 15 27
15 37 0 10 6 28 14 40 8 12 16 47 16 77 2 61 17 120 30 120 11 0 18 -43 23
-132 3 -68 1 -72 -34 -69 -39 4 -49 -48 -16 -81 34 -35 83 -15 93 38 7 40 27
41 28 1 1 -15 9 -34 18 -44 14 -13 20 -14 32 -3 19 15 21 61 4 78 -8 8 -11 40
-10 95 4 102 7 114 36 121 42 10 60 80 28 110 -17 14 -44 16 -218 14 l-199 -3
-19 -30 -20 -31 -47 32 c-45 30 -51 31 -155 32 -60 0 -116 -4 -125 -9 -10 -5
-25 -29 -34 -54 -10 -25 -21 -45 -26 -45 -5 0 -16 15 -25 33 -38 76 -92 99
-133 58z m118 -108 l38 -93 35 93 c35 91 36 92 72 95 20 2 36 1 36 -2 0 -2
-24 -67 -54 -143 -54 -136 -55 -138 -88 -141 l-33 -3 -55 137 c-30 75 -57 140
-59 146 -2 5 13 8 34 6 37 -3 38 -4 74 -95z m271 -48 l0 -145 -35 0 -35 0 0
145 0 145 35 0 35 0 0 -145z m125 89 l70 -55 3 55 c3 56 3 56 35 56 l32 0 -3
-145 -3 -145 -35 0 -35 0 6 43 c6 42 5 43 -43 85 -28 23 -53 42 -56 42 -3 0
-6 -38 -6 -85 l0 -85 -34 0 -34 0 1 145 c2 122 4 145 17 145 9 0 47 -25 85
-56z m235 -89 l0 -145 -35 0 -35 0 0 145 0 145 35 0 35 0 0 -145z m240 110 c0
-34 -1 -35 -39 -35 l-40 0 6 -110 6 -110 -43 0 -43 0 6 110 5 110 -39 0 c-38
0 -39 1 -39 35 l0 35 110 0 110 0 0 -35z m-863 -317 c3 -26 1 -28 -32 -28 -32
0 -35 2 -35 31 0 28 2 30 32 27 26 -2 32 -8 35 -30z m250 21 c8 -8 13 -8 17 0
13 21 26 11 26 -19 0 -31 -17 -39 -38 -18 -9 9 -12 9 -12 0 0 -7 -7 -12 -15
-12 -10 0 -15 10 -15 30 0 31 17 39 37 19z m185 -14 c6 -31 2 -35 -39 -35 -30
0 -33 3 -33 30 0 27 3 30 34 30 28 0 34 -4 38 -25z m234 10 c4 -8 10 -15 15
-15 5 0 9 7 9 15 0 8 7 15 15 15 18 0 18 -2 3 -35 -6 -14 -19 -25 -28 -25 -14
0 -40 37 -40 55 0 12 21 3 26 -10z m144 -20 c0 -19 -4 -35 -10 -35 -5 0 -10
16 -10 35 0 19 5 35 10 35 6 0 10 -16 10 -35z"/>
<path d="M1196 905 c-30 -46 -14 -75 41 -75 33 0 33 0 17 25 l-16 25 -19 -23
c-21 -25 -25 -11 -7 28 15 34 34 32 55 -7 17 -32 17 -33 21 -8 3 16 -3 30 -18
42 -31 25 -55 23 -74 -7z"/>
<path d="M1652 850 c-11 -18 -10 -20 18 -20 28 0 29 2 18 20 -7 11 -15 20 -18
20 -3 0 -11 -9 -18 -20z"/>
</g>
</svg>
